<svg viewBox="0 0 1259 481" xmlns="http://www.w3.org/2000/svg" fill="#e6e6e6" role="img" aria-label="Knotis">
  <g fill="none" stroke="#e6e6e6" stroke-linecap="round"><line x1="79.0" y1="79.0" x2="79.0" y2="172.7" stroke-width="37.0"/><line x1="79.0" y1="291.1" x2="79.0" y2="394.7" stroke-width="37.0"/><line x1="138.2" y1="212.2" x2="325.7" y2="93.8" stroke-width="37.0"/><line x1="138.2" y1="251.7" x2="335.5" y2="389.8" stroke-width="37.0"/></g>
  <circle cx="79.0" cy="79.0" r="37.0"/><circle cx="79.0" cy="394.7" r="37.0"/><circle cx="325.7" cy="93.8" r="37.0"/><circle cx="335.5" cy="389.8" r="37.0"/>
  <circle cx="79.0" cy="231.9" r="54.3" fill="none" stroke="#e6e6e6" stroke-width="29.6"/><circle cx="79.0" cy="231.9" r="16.6"/>
  <g transform="translate(389.5,431.7)"><path d="M340.75 537.5Q412 537.5 450.75 508.0Q489.5 478.5 505.0 429.125Q520.5 379.75 520.5 319.25V50.75Q520.5 29.25 506.25 14.625Q492 0 470.5 0Q448.75 0 434.625 14.625Q420.5 29.25 420.5 50.75V318.25Q420.5 353.75 410.5 382.375Q400.5 411 376.125 428.25Q351.75 445.5 308.25 445.5Q267.25 445.5 236.125 428.25Q205 411 187.25 382.375Q169.5 353.75 169.5 318.25V50.75Q169.5 29.25 155.25 14.625Q141 0 119.5 0Q97.75 0 83.625 14.625Q69.5 29.25 69.5 50.75V475.25Q69.5 496.75 83.75 511.375Q98 526 119.5 526Q141.25 526 155.375 511.375Q169.5 496.75 169.5 475.25V418.5L152 408.75Q158.75 430.5 176.25 453.375Q193.75 476.25 218.75 495.375Q243.75 514.5 274.875 526.0Q306 537.5 340.75 537.5Z" transform="translate(0.00,0) scale(0.3663,-0.3663)"/><path d="M574.25 263.25Q574.25 183.25 538.875 121.5Q503.5 59.75 443.5 24.875Q383.5 -10 308.75 -10Q234.25 -10 174.125 24.875Q114 59.75 78.5 121.5Q43 183.25 43 263.25Q43 343.5 78.5 405.25Q114 467 174.125 502.25Q234.25 537.5 308.75 537.5Q383.5 537.5 443.5 502.25Q503.5 467 538.875 405.25Q574.25 343.5 574.25 263.25ZM474.25 263.25Q474.25 317.75 452.25 358.5Q430.25 399.25 392.75 422.375Q355.25 445.5 308.75 445.5Q262.5 445.5 224.875 422.375Q187.25 399.25 165.125 358.5Q143 317.75 143 263.25Q143 209.75 165.125 169.0Q187.25 128.25 224.875 105.125Q262.5 82 308.75 82Q355.25 82 392.75 105.125Q430.25 128.25 452.25 169.0Q474.25 209.75 474.25 263.25Z" transform="translate(216.14,0) scale(0.3663,-0.3663)"/><path d="M62.5 519.5H298.25Q318.25 519.5 331.625 506.0Q345 492.5 345 472.75Q345 453.5 331.625 440.5Q318.25 427.5 298.25 427.5H62.5Q42.75 427.5 29.25 441.0Q15.75 454.5 15.75 474.25Q15.75 493.5 29.25 506.5Q42.75 519.5 62.5 519.5ZM168.25 650Q190 650 203.75 635.375Q217.5 620.75 217.5 599.25V135.25Q217.5 116.5 223.75 105.875Q230 95.25 240.375 91.125Q250.75 87 262 87Q272.75 87 281.5 90.875Q290.25 94.75 301.75 94.75Q314 94.75 323.875 83.625Q333.75 72.5 333.75 53.5Q333.75 30.25 308.0 15.125Q282.25 0 251.75 0Q234.5 0 211.5 2.75Q188.5 5.5 167.25 17.75Q146 30 131.75 56.625Q117.5 83.25 117.5 131V599.25Q117.5 620.75 132.125 635.375Q146.75 650 168.25 650Z" transform="translate(442.17,0) scale(0.3663,-0.3663)"/><path d="M164.25 50.75Q164.25 29.25 150.0 14.625Q135.75 0 114.25 0Q92.5 0 78.375 14.625Q64.25 29.25 64.25 50.75V479.25Q64.25 500.75 78.5 515.375Q92.75 530 114.25 530Q136 530 150.125 515.375Q164.25 500.75 164.25 479.25ZM113.5 595.75Q84.0 595.75 71.125 606.25Q58.25 616.75 58.25 641.25V657.5Q58.25 682.75 72.375 692.875Q86.5 703.0 114.5 703.0Q144.25 703.0 157.125 692.5Q170.0 682.0 170.0 657.5V641.25Q170.0 616.0 156.375 605.875Q142.75 595.75 113.5 595.75Z" transform="translate(583.57,0) scale(0.3663,-0.3663)"/><path d="M39.25 82.25Q30 95.75 30.875 114.125Q31.75 132.5 52.25 145.75Q65.5 154.5 81.125 153.25Q96.75 152 111 137.5Q139.25 106.5 173.375 88.75Q207.5 71 257.25 71Q276.75 71.75 297.875 77.125Q319 82.5 334.0 97.375Q349 112.25 349 139.75Q349 164.75 333.0 179.625Q317 194.5 291.125 204.25Q265.25 214 234.5 222Q202.5 231 170.25 242.125Q138 253.25 111.75 270.75Q85.5 288.25 69.25 316.0Q53 343.75 53 385Q53 432.25 79.25 466.25Q105.5 500.25 148.375 518.875Q191.25 537.5 240.5 537.5Q269.75 537.5 302.0 530.375Q334.25 523.25 364.25 507.25Q394.25 491.25 415.75 464.5Q426 451.75 427.375 433.875Q428.75 416 411.25 401.5Q398.5 391.5 381.75 392.625Q365 393.75 354 404.25Q334.75 428 304.75 441.25Q274.75 454.5 237.25 454.5Q217.75 454.5 197.5 449.125Q177.25 443.75 163.0 429.75Q148.75 415.75 148.75 388.75Q149.25 363.75 165.375 348.625Q181.5 333.5 208.75 323.875Q236 314.25 268 305.5Q298.75 297.5 329.125 286.625Q359.5 275.75 384.375 258.25Q409.25 240.75 424.375 213.375Q439.5 186 439.5 144Q439.5 95.25 411.375 60.625Q383.25 26 339.625 8.0Q296 -10 248 -10Q190.75 -10 134.5 10.625Q78.25 31.25 39.25 82.25Z" transform="translate(667.47,0) scale(0.3663,-0.3663)"/></g>
  <circle cx="718.3" cy="334.6" r="28.4"/>
</svg>